<?xml version="1.0" encoding="utf-8"?>
<!-- Generator: Adobe Illustrator 21.1.0, SVG Export Plug-In . SVG Version: 6.00 Build 0)  -->
<svg version="1.1" id="Ebene_1" xmlns="http://www.w3.org/2000/svg" xmlns:xlink="http://www.w3.org/1999/xlink" x="0px" y="0px"
	 viewBox="0 0 155 155" style="enable-background:new 0 0 155 155;" xml:space="preserve">
<style type="text/css">
	.st0{fill:#FFFCEF;}
	.st1{fill:#292D2B;}
</style>
<g>
	<path class="st0" d="M152,77.1c0,41.1-33.3,74.5-74.5,74.5c-41.1,0-74.5-33.3-74.5-74.5C3.1,36,36.4,2.7,77.5,2.7
		C118.6,2.7,152,36,152,77.1z"/>
	<path class="st1" d="M86.1,41.6L76,63.7L65.6,41.6h-5.4v35.5v35.5h5.4L76,90.5l10.2,22.1h5.4V77.1V41.6H86.1z M86.1,100.9L78,83.6
		h-4l-8.4,17.3V77.1V53.4L74,70.7h4l8.2-17.3v23.7V100.9z"/>
</g>
</svg>
