<svg id="Skizze" xmlns="http://www.w3.org/2000/svg" viewBox="0 0 47.06 47.06"><defs><style>.cls-1{fill:#223133;}</style></defs><title>Marke Anker</title><circle class="cls-1" cx="23.36" cy="10.68" r="2.17"/><path class="cls-1" d="M23.53.72a22.8,22.8,0,1,0,22.81,22.8A22.8,22.8,0,0,0,23.53.72ZM35.21,27.84a11.61,11.61,0,0,1-11.85,10.9,11.61,11.61,0,0,1-11.85-10.9H10.36l2-3.42,2,3.42H13.14a10,10,0,0,0,9.22,9.22V19.84h-5v-1h5V14.71a4.17,4.17,0,1,1,2,0v4.13h5v1h-5V37.06a10,10,0,0,0,9.22-9.22H32.36l2-3.42,2,3.42Z"/></svg>